<svg width="380" height="921" viewBox="0 0 380 921" fill="none" xmlns="http://www.w3.org/2000/svg">
<g opacity="0.4">
<path d="M17.449 48.0552C19.8047 48.0552 21.7143 46.1394 21.7143 43.7761C21.7143 41.4128 19.8047 39.497 17.449 39.497C15.0934 39.497 13.1837 41.4128 13.1837 43.7761C13.1837 46.1394 15.0934 48.0552 17.449 48.0552Z" fill="#3284E2"/>
<path d="M68.6327 48.0552C70.9883 48.0552 72.898 46.1394 72.898 43.7761C72.898 41.4128 70.9883 39.497 68.6327 39.497C66.277 39.497 64.3674 41.4128 64.3674 43.7761C64.3674 46.1394 66.277 48.0552 68.6327 48.0552Z" fill="#3284E2"/>
<path d="M119.816 48.0552C122.172 48.0552 124.082 46.1394 124.082 43.7761C124.082 41.4128 122.172 39.497 119.816 39.497C117.461 39.497 115.551 41.4128 115.551 43.7761C115.551 46.1394 117.461 48.0552 119.816 48.0552Z" fill="#3284E2"/>
<path d="M171 48.0552C173.356 48.0552 175.265 46.1394 175.265 43.7761C175.265 41.4128 173.356 39.497 171 39.497C168.644 39.497 166.735 41.4128 166.735 43.7761C166.735 46.1394 168.644 48.0552 171 48.0552Z" fill="#3284E2"/>
<path d="M222.184 48.0552C224.539 48.0552 226.449 46.1394 226.449 43.7761C226.449 41.4128 224.539 39.497 222.184 39.497C219.828 39.497 217.918 41.4128 217.918 43.7761C217.918 46.1394 219.828 48.0552 222.184 48.0552Z" fill="#3284E2"/>
<path d="M273.367 48.0552C275.723 48.0552 277.633 46.1394 277.633 43.7761C277.633 41.4128 275.723 39.497 273.367 39.497C271.012 39.497 269.102 41.4128 269.102 43.7761C269.102 46.1394 271.012 48.0552 273.367 48.0552Z" fill="#3284E2"/>
<path d="M324.551 48.0552C326.907 48.0552 328.816 46.1394 328.816 43.7761C328.816 41.4128 326.907 39.497 324.551 39.497C322.195 39.497 320.286 41.4128 320.286 43.7761C320.286 46.1394 322.195 48.0552 324.551 48.0552Z" fill="#3284E2"/>
<path d="M375.735 48.0552C378.09 48.0552 380 46.1394 380 43.7761C380 41.4128 378.09 39.497 375.735 39.497C373.379 39.497 371.469 41.4128 371.469 43.7761C371.469 46.1394 373.379 48.0552 375.735 48.0552Z" fill="#3284E2"/>
<path d="M17.449 99.405C19.8047 99.405 21.7143 97.4891 21.7143 95.1258C21.7143 92.7625 19.8047 90.8466 17.449 90.8466C15.0934 90.8466 13.1837 92.7625 13.1837 95.1258C13.1837 97.4891 15.0934 99.405 17.449 99.405Z" fill="#3284E2"/>
<path d="M68.6327 99.405C70.9883 99.405 72.898 97.4891 72.898 95.1258C72.898 92.7625 70.9883 90.8466 68.6327 90.8466C66.277 90.8466 64.3674 92.7625 64.3674 95.1258C64.3674 97.4891 66.277 99.405 68.6327 99.405Z" fill="#3284E2"/>
<path d="M119.816 99.405C122.172 99.405 124.082 97.4891 124.082 95.1258C124.082 92.7625 122.172 90.8466 119.816 90.8466C117.461 90.8466 115.551 92.7625 115.551 95.1258C115.551 97.4891 117.461 99.405 119.816 99.405Z" fill="#3284E2"/>
<path d="M171 99.405C173.356 99.405 175.265 97.4891 175.265 95.1258C175.265 92.7625 173.356 90.8466 171 90.8466C168.644 90.8466 166.735 92.7625 166.735 95.1258C166.735 97.4891 168.644 99.405 171 99.405Z" fill="#3284E2"/>
<path d="M222.184 99.405C224.539 99.405 226.449 97.4891 226.449 95.1258C226.449 92.7625 224.539 90.8466 222.184 90.8466C219.828 90.8466 217.918 92.7625 217.918 95.1258C217.918 97.4891 219.828 99.405 222.184 99.405Z" fill="#3284E2"/>
<path d="M273.367 99.405C275.723 99.405 277.633 97.4891 277.633 95.1258C277.633 92.7625 275.723 90.8466 273.367 90.8466C271.012 90.8466 269.102 92.7625 269.102 95.1258C269.102 97.4891 271.012 99.405 273.367 99.405Z" fill="#3284E2"/>
<path d="M324.551 99.405C326.907 99.405 328.816 97.4891 328.816 95.1258C328.816 92.7625 326.907 90.8466 324.551 90.8466C322.195 90.8466 320.286 92.7625 320.286 95.1258C320.286 97.4891 322.195 99.405 324.551 99.405Z" fill="#3284E2"/>
<path d="M375.735 99.405C378.09 99.405 380 97.4891 380 95.1258C380 92.7625 378.09 90.8466 375.735 90.8466C373.379 90.8466 371.469 92.7625 371.469 95.1258C371.469 97.4891 373.379 99.405 375.735 99.405Z" fill="#3284E2"/>
<path d="M17.449 150.755C19.8047 150.755 21.7143 148.839 21.7143 146.475C21.7143 144.112 19.8047 142.196 17.449 142.196C15.0934 142.196 13.1837 144.112 13.1837 146.475C13.1837 148.839 15.0934 150.755 17.449 150.755Z" fill="#3284E2"/>
<path d="M68.6327 150.755C70.9883 150.755 72.898 148.839 72.898 146.475C72.898 144.112 70.9883 142.196 68.6327 142.196C66.277 142.196 64.3674 144.112 64.3674 146.475C64.3674 148.839 66.277 150.755 68.6327 150.755Z" fill="#3284E2"/>
<path d="M119.816 150.755C122.172 150.755 124.082 148.839 124.082 146.475C124.082 144.112 122.172 142.196 119.816 142.196C117.461 142.196 115.551 144.112 115.551 146.475C115.551 148.839 117.461 150.755 119.816 150.755Z" fill="#3284E2"/>
<path d="M171 150.755C173.356 150.755 175.265 148.839 175.265 146.475C175.265 144.112 173.356 142.196 171 142.196C168.644 142.196 166.735 144.112 166.735 146.475C166.735 148.839 168.644 150.755 171 150.755Z" fill="#3284E2"/>
<path d="M222.184 150.755C224.539 150.755 226.449 148.839 226.449 146.475C226.449 144.112 224.539 142.196 222.184 142.196C219.828 142.196 217.918 144.112 217.918 146.475C217.918 148.839 219.828 150.755 222.184 150.755Z" fill="#3284E2"/>
<path d="M273.367 150.755C275.723 150.755 277.633 148.839 277.633 146.475C277.633 144.112 275.723 142.196 273.367 142.196C271.012 142.196 269.102 144.112 269.102 146.475C269.102 148.839 271.012 150.755 273.367 150.755Z" fill="#3284E2"/>
<path d="M324.551 150.755C326.907 150.755 328.816 148.839 328.816 146.475C328.816 144.112 326.907 142.196 324.551 142.196C322.195 142.196 320.286 144.112 320.286 146.475C320.286 148.839 322.195 150.755 324.551 150.755Z" fill="#3284E2"/>
<path d="M375.735 150.755C378.09 150.755 380 148.839 380 146.475C380 144.112 378.09 142.196 375.735 142.196C373.379 142.196 371.469 144.112 371.469 146.475C371.469 148.839 373.379 150.755 375.735 150.755Z" fill="#3284E2"/>
<path d="M17.449 202.104C19.8047 202.104 21.7143 200.188 21.7143 197.825C21.7143 195.462 19.8047 193.546 17.449 193.546C15.0934 193.546 13.1837 195.462 13.1837 197.825C13.1837 200.188 15.0934 202.104 17.449 202.104Z" fill="#3284E2"/>
<path d="M68.6327 202.104C70.9883 202.104 72.898 200.188 72.898 197.825C72.898 195.462 70.9883 193.546 68.6327 193.546C66.277 193.546 64.3674 195.462 64.3674 197.825C64.3674 200.188 66.277 202.104 68.6327 202.104Z" fill="#3284E2"/>
<path d="M119.816 202.104C122.172 202.104 124.082 200.188 124.082 197.825C124.082 195.462 122.172 193.546 119.816 193.546C117.461 193.546 115.551 195.462 115.551 197.825C115.551 200.188 117.461 202.104 119.816 202.104Z" fill="#3284E2"/>
<path d="M171 202.104C173.356 202.104 175.265 200.188 175.265 197.825C175.265 195.462 173.356 193.546 171 193.546C168.644 193.546 166.735 195.462 166.735 197.825C166.735 200.188 168.644 202.104 171 202.104Z" fill="#3284E2"/>
<path d="M222.184 202.104C224.539 202.104 226.449 200.188 226.449 197.825C226.449 195.462 224.539 193.546 222.184 193.546C219.828 193.546 217.918 195.462 217.918 197.825C217.918 200.188 219.828 202.104 222.184 202.104Z" fill="#3284E2"/>
<path d="M273.367 202.104C275.723 202.104 277.633 200.188 277.633 197.825C277.633 195.462 275.723 193.546 273.367 193.546C271.012 193.546 269.102 195.462 269.102 197.825C269.102 200.188 271.012 202.104 273.367 202.104Z" fill="#3284E2"/>
<path d="M324.551 202.104C326.907 202.104 328.816 200.188 328.816 197.825C328.816 195.462 326.907 193.546 324.551 193.546C322.195 193.546 320.286 195.462 320.286 197.825C320.286 200.188 322.195 202.104 324.551 202.104Z" fill="#3284E2"/>
<path d="M375.735 202.104C378.09 202.104 380 200.188 380 197.825C380 195.462 378.09 193.546 375.735 193.546C373.379 193.546 371.469 195.462 371.469 197.825C371.469 200.188 373.379 202.104 375.735 202.104Z" fill="#3284E2"/>
<path d="M17.449 253.454C19.8047 253.454 21.7143 251.538 21.7143 249.175C21.7143 246.812 19.8047 244.896 17.449 244.896C15.0934 244.896 13.1837 246.812 13.1837 249.175C13.1837 251.538 15.0934 253.454 17.449 253.454Z" fill="#3284E2"/>
<path d="M68.6327 253.454C70.9883 253.454 72.898 251.538 72.898 249.175C72.898 246.812 70.9883 244.896 68.6327 244.896C66.277 244.896 64.3674 246.812 64.3674 249.175C64.3674 251.538 66.277 253.454 68.6327 253.454Z" fill="#3284E2"/>
<path d="M119.816 253.454C122.172 253.454 124.082 251.538 124.082 249.175C124.082 246.812 122.172 244.896 119.816 244.896C117.461 244.896 115.551 246.812 115.551 249.175C115.551 251.538 117.461 253.454 119.816 253.454Z" fill="#3284E2"/>
<path d="M171 253.454C173.356 253.454 175.265 251.538 175.265 249.175C175.265 246.812 173.356 244.896 171 244.896C168.644 244.896 166.735 246.812 166.735 249.175C166.735 251.538 168.644 253.454 171 253.454Z" fill="#3284E2"/>
<path d="M222.184 253.454C224.539 253.454 226.449 251.538 226.449 249.175C226.449 246.812 224.539 244.896 222.184 244.896C219.828 244.896 217.918 246.812 217.918 249.175C217.918 251.538 219.828 253.454 222.184 253.454Z" fill="#3284E2"/>
<path d="M273.367 253.454C275.723 253.454 277.633 251.538 277.633 249.175C277.633 246.812 275.723 244.896 273.367 244.896C271.012 244.896 269.102 246.812 269.102 249.175C269.102 251.538 271.012 253.454 273.367 253.454Z" fill="#3284E2"/>
<path d="M324.551 253.454C326.907 253.454 328.816 251.538 328.816 249.175C328.816 246.812 326.907 244.896 324.551 244.896C322.195 244.896 320.286 246.812 320.286 249.175C320.286 251.538 322.195 253.454 324.551 253.454Z" fill="#3284E2"/>
<path d="M375.735 253.454C378.09 253.454 380 251.538 380 249.175C380 246.812 378.09 244.896 375.735 244.896C373.379 244.896 371.469 246.812 371.469 249.175C371.469 251.538 373.379 253.454 375.735 253.454Z" fill="#3284E2"/>
<path d="M17.449 304.804C19.8047 304.804 21.7143 302.888 21.7143 300.525C21.7143 298.161 19.8047 296.245 17.449 296.245C15.0934 296.245 13.1837 298.161 13.1837 300.525C13.1837 302.888 15.0934 304.804 17.449 304.804Z" fill="#3284E2"/>
<path d="M68.6327 304.804C70.9883 304.804 72.898 302.888 72.898 300.525C72.898 298.161 70.9883 296.245 68.6327 296.245C66.277 296.245 64.3674 298.161 64.3674 300.525C64.3674 302.888 66.277 304.804 68.6327 304.804Z" fill="#3284E2"/>
<path d="M119.816 304.804C122.172 304.804 124.082 302.888 124.082 300.525C124.082 298.161 122.172 296.245 119.816 296.245C117.461 296.245 115.551 298.161 115.551 300.525C115.551 302.888 117.461 304.804 119.816 304.804Z" fill="#3284E2"/>
<path d="M171 304.804C173.356 304.804 175.265 302.888 175.265 300.525C175.265 298.161 173.356 296.245 171 296.245C168.644 296.245 166.735 298.161 166.735 300.525C166.735 302.888 168.644 304.804 171 304.804Z" fill="#3284E2"/>
<path d="M222.184 304.804C224.539 304.804 226.449 302.888 226.449 300.525C226.449 298.161 224.539 296.245 222.184 296.245C219.828 296.245 217.918 298.161 217.918 300.525C217.918 302.888 219.828 304.804 222.184 304.804Z" fill="#3284E2"/>
<path d="M273.367 304.804C275.723 304.804 277.633 302.888 277.633 300.525C277.633 298.161 275.723 296.245 273.367 296.245C271.012 296.245 269.102 298.161 269.102 300.525C269.102 302.888 271.012 304.804 273.367 304.804Z" fill="#3284E2"/>
<path d="M324.551 304.804C326.907 304.804 328.816 302.888 328.816 300.525C328.816 298.161 326.907 296.245 324.551 296.245C322.195 296.245 320.286 298.161 320.286 300.525C320.286 302.888 322.195 304.804 324.551 304.804Z" fill="#3284E2"/>
<path d="M375.735 304.804C378.09 304.804 380 302.888 380 300.525C380 298.161 378.09 296.245 375.735 296.245C373.379 296.245 371.469 298.161 371.469 300.525C371.469 302.888 373.379 304.804 375.735 304.804Z" fill="#3284E2"/>
<path d="M17.449 356.153C19.8047 356.153 21.7143 354.237 21.7143 351.874C21.7143 349.511 19.8047 347.595 17.449 347.595C15.0934 347.595 13.1837 349.511 13.1837 351.874C13.1837 354.237 15.0934 356.153 17.449 356.153Z" fill="#3284E2"/>
<path d="M68.6327 356.153C70.9883 356.153 72.898 354.237 72.898 351.874C72.898 349.511 70.9883 347.595 68.6327 347.595C66.277 347.595 64.3674 349.511 64.3674 351.874C64.3674 354.237 66.277 356.153 68.6327 356.153Z" fill="#3284E2"/>
<path d="M119.816 356.153C122.172 356.153 124.082 354.237 124.082 351.874C124.082 349.511 122.172 347.595 119.816 347.595C117.461 347.595 115.551 349.511 115.551 351.874C115.551 354.237 117.461 356.153 119.816 356.153Z" fill="#3284E2"/>
<path d="M171 356.153C173.356 356.153 175.265 354.237 175.265 351.874C175.265 349.511 173.356 347.595 171 347.595C168.644 347.595 166.735 349.511 166.735 351.874C166.735 354.237 168.644 356.153 171 356.153Z" fill="#3284E2"/>
<path d="M222.184 356.153C224.539 356.153 226.449 354.237 226.449 351.874C226.449 349.511 224.539 347.595 222.184 347.595C219.828 347.595 217.918 349.511 217.918 351.874C217.918 354.237 219.828 356.153 222.184 356.153Z" fill="#3284E2"/>
<path d="M273.367 356.153C275.723 356.153 277.633 354.237 277.633 351.874C277.633 349.511 275.723 347.595 273.367 347.595C271.012 347.595 269.102 349.511 269.102 351.874C269.102 354.237 271.012 356.153 273.367 356.153Z" fill="#3284E2"/>
<path d="M324.551 356.153C326.907 356.153 328.816 354.237 328.816 351.874C328.816 349.511 326.907 347.595 324.551 347.595C322.195 347.595 320.286 349.511 320.286 351.874C320.286 354.237 322.195 356.153 324.551 356.153Z" fill="#3284E2"/>
<path d="M375.735 356.153C378.09 356.153 380 354.237 380 351.874C380 349.511 378.09 347.595 375.735 347.595C373.379 347.595 371.469 349.511 371.469 351.874C371.469 354.237 373.379 356.153 375.735 356.153Z" fill="#3284E2"/>
<path d="M17.449 407.503C19.8047 407.503 21.7143 405.587 21.7143 403.224C21.7143 400.861 19.8047 398.945 17.449 398.945C15.0934 398.945 13.1837 400.861 13.1837 403.224C13.1837 405.587 15.0934 407.503 17.449 407.503Z" fill="#3284E2"/>
<path d="M68.6327 407.503C70.9883 407.503 72.898 405.587 72.898 403.224C72.898 400.861 70.9883 398.945 68.6327 398.945C66.277 398.945 64.3674 400.861 64.3674 403.224C64.3674 405.587 66.277 407.503 68.6327 407.503Z" fill="#3284E2"/>
<path d="M119.816 407.503C122.172 407.503 124.082 405.587 124.082 403.224C124.082 400.861 122.172 398.945 119.816 398.945C117.461 398.945 115.551 400.861 115.551 403.224C115.551 405.587 117.461 407.503 119.816 407.503Z" fill="#3284E2"/>
<path d="M171 407.503C173.356 407.503 175.265 405.587 175.265 403.224C175.265 400.861 173.356 398.945 171 398.945C168.644 398.945 166.735 400.861 166.735 403.224C166.735 405.587 168.644 407.503 171 407.503Z" fill="#3284E2"/>
<path d="M222.184 407.503C224.539 407.503 226.449 405.587 226.449 403.224C226.449 400.861 224.539 398.945 222.184 398.945C219.828 398.945 217.918 400.861 217.918 403.224C217.918 405.587 219.828 407.503 222.184 407.503Z" fill="#3284E2"/>
<path d="M273.367 407.503C275.723 407.503 277.633 405.587 277.633 403.224C277.633 400.861 275.723 398.945 273.367 398.945C271.012 398.945 269.102 400.861 269.102 403.224C269.102 405.587 271.012 407.503 273.367 407.503Z" fill="#3284E2"/>
<path d="M324.551 407.503C326.907 407.503 328.816 405.587 328.816 403.224C328.816 400.861 326.907 398.945 324.551 398.945C322.195 398.945 320.286 400.861 320.286 403.224C320.286 405.587 322.195 407.503 324.551 407.503Z" fill="#3284E2"/>
<path d="M375.735 407.503C378.09 407.503 380 405.587 380 403.224C380 400.861 378.09 398.945 375.735 398.945C373.379 398.945 371.469 400.861 371.469 403.224C371.469 405.587 373.379 407.503 375.735 407.503Z" fill="#3284E2"/>
<path d="M17.449 458.853C19.8047 458.853 21.7143 456.937 21.7143 454.574C21.7143 452.21 19.8047 450.295 17.449 450.295C15.0934 450.295 13.1837 452.21 13.1837 454.574C13.1837 456.937 15.0934 458.853 17.449 458.853Z" fill="#3284E2"/>
<path d="M68.6327 458.853C70.9883 458.853 72.898 456.937 72.898 454.574C72.898 452.21 70.9883 450.295 68.6327 450.295C66.277 450.295 64.3674 452.21 64.3674 454.574C64.3674 456.937 66.277 458.853 68.6327 458.853Z" fill="#3284E2"/>
<path d="M119.816 458.853C122.172 458.853 124.082 456.937 124.082 454.574C124.082 452.21 122.172 450.295 119.816 450.295C117.461 450.295 115.551 452.21 115.551 454.574C115.551 456.937 117.461 458.853 119.816 458.853Z" fill="#3284E2"/>
<path d="M171 458.853C173.356 458.853 175.265 456.937 175.265 454.574C175.265 452.21 173.356 450.295 171 450.295C168.644 450.295 166.735 452.21 166.735 454.574C166.735 456.937 168.644 458.853 171 458.853Z" fill="#3284E2"/>
<path d="M222.184 458.853C224.539 458.853 226.449 456.937 226.449 454.574C226.449 452.21 224.539 450.295 222.184 450.295C219.828 450.295 217.918 452.21 217.918 454.574C217.918 456.937 219.828 458.853 222.184 458.853Z" fill="#3284E2"/>
<path d="M273.367 458.853C275.723 458.853 277.633 456.937 277.633 454.574C277.633 452.21 275.723 450.295 273.367 450.295C271.012 450.295 269.102 452.21 269.102 454.574C269.102 456.937 271.012 458.853 273.367 458.853Z" fill="#3284E2"/>
<path d="M324.551 458.853C326.907 458.853 328.816 456.937 328.816 454.574C328.816 452.21 326.907 450.295 324.551 450.295C322.195 450.295 320.286 452.21 320.286 454.574C320.286 456.937 322.195 458.853 324.551 458.853Z" fill="#3284E2"/>
<path d="M375.735 458.853C378.09 458.853 380 456.937 380 454.574C380 452.21 378.09 450.295 375.735 450.295C373.379 450.295 371.469 452.21 371.469 454.574C371.469 456.937 373.379 458.853 375.735 458.853Z" fill="#3284E2"/>
<path d="M17.449 510.202C19.8047 510.202 21.7143 508.287 21.7143 505.923C21.7143 503.56 19.8047 501.644 17.449 501.644C15.0934 501.644 13.1837 503.56 13.1837 505.923C13.1837 508.287 15.0934 510.202 17.449 510.202Z" fill="#3284E2"/>
<path d="M68.6327 510.202C70.9883 510.202 72.898 508.287 72.898 505.923C72.898 503.56 70.9883 501.644 68.6327 501.644C66.277 501.644 64.3674 503.56 64.3674 505.923C64.3674 508.287 66.277 510.202 68.6327 510.202Z" fill="#3284E2"/>
<path d="M119.816 510.202C122.172 510.202 124.082 508.287 124.082 505.923C124.082 503.56 122.172 501.644 119.816 501.644C117.461 501.644 115.551 503.56 115.551 505.923C115.551 508.287 117.461 510.202 119.816 510.202Z" fill="#3284E2"/>
<path d="M171 510.202C173.356 510.202 175.265 508.287 175.265 505.923C175.265 503.56 173.356 501.644 171 501.644C168.644 501.644 166.735 503.56 166.735 505.923C166.735 508.287 168.644 510.202 171 510.202Z" fill="#3284E2"/>
<path d="M222.184 510.202C224.539 510.202 226.449 508.287 226.449 505.923C226.449 503.56 224.539 501.644 222.184 501.644C219.828 501.644 217.918 503.56 217.918 505.923C217.918 508.287 219.828 510.202 222.184 510.202Z" fill="#3284E2"/>
<path d="M273.367 510.202C275.723 510.202 277.633 508.287 277.633 505.923C277.633 503.56 275.723 501.644 273.367 501.644C271.012 501.644 269.102 503.56 269.102 505.923C269.102 508.287 271.012 510.202 273.367 510.202Z" fill="#3284E2"/>
<path d="M324.551 510.202C326.907 510.202 328.816 508.287 328.816 505.923C328.816 503.56 326.907 501.644 324.551 501.644C322.195 501.644 320.286 503.56 320.286 505.923C320.286 508.287 322.195 510.202 324.551 510.202Z" fill="#3284E2"/>
<path d="M375.735 510.202C378.09 510.202 380 508.287 380 505.923C380 503.56 378.09 501.644 375.735 501.644C373.379 501.644 371.469 503.56 371.469 505.923C371.469 508.287 373.379 510.202 375.735 510.202Z" fill="#3284E2"/>
<path d="M17.449 561.552C19.8047 561.552 21.7143 559.636 21.7143 557.273C21.7143 554.91 19.8047 552.994 17.449 552.994C15.0934 552.994 13.1837 554.91 13.1837 557.273C13.1837 559.636 15.0934 561.552 17.449 561.552Z" fill="#3284E2"/>
<path d="M68.6327 561.552C70.9883 561.552 72.898 559.636 72.898 557.273C72.898 554.91 70.9883 552.994 68.6327 552.994C66.277 552.994 64.3674 554.91 64.3674 557.273C64.3674 559.636 66.277 561.552 68.6327 561.552Z" fill="#3284E2"/>
<path d="M119.816 561.552C122.172 561.552 124.082 559.636 124.082 557.273C124.082 554.91 122.172 552.994 119.816 552.994C117.461 552.994 115.551 554.91 115.551 557.273C115.551 559.636 117.461 561.552 119.816 561.552Z" fill="#3284E2"/>
<path d="M171 561.552C173.356 561.552 175.265 559.636 175.265 557.273C175.265 554.91 173.356 552.994 171 552.994C168.644 552.994 166.735 554.91 166.735 557.273C166.735 559.636 168.644 561.552 171 561.552Z" fill="#3284E2"/>
<path d="M222.184 561.552C224.539 561.552 226.449 559.636 226.449 557.273C226.449 554.91 224.539 552.994 222.184 552.994C219.828 552.994 217.918 554.91 217.918 557.273C217.918 559.636 219.828 561.552 222.184 561.552Z" fill="#3284E2"/>
<path d="M273.367 561.552C275.723 561.552 277.633 559.636 277.633 557.273C277.633 554.91 275.723 552.994 273.367 552.994C271.012 552.994 269.102 554.91 269.102 557.273C269.102 559.636 271.012 561.552 273.367 561.552Z" fill="#3284E2"/>
<path d="M324.551 561.552C326.907 561.552 328.816 559.636 328.816 557.273C328.816 554.91 326.907 552.994 324.551 552.994C322.195 552.994 320.286 554.91 320.286 557.273C320.286 559.636 322.195 561.552 324.551 561.552Z" fill="#3284E2"/>
<path d="M375.735 561.552C378.09 561.552 380 559.636 380 557.273C380 554.91 378.09 552.994 375.735 552.994C373.379 552.994 371.469 554.91 371.469 557.273C371.469 559.636 373.379 561.552 375.735 561.552Z" fill="#3284E2"/>
<path d="M17.449 612.902C19.8047 612.902 21.7143 610.986 21.7143 608.623C21.7143 606.259 19.8047 604.344 17.449 604.344C15.0934 604.344 13.1837 606.259 13.1837 608.623C13.1837 610.986 15.0934 612.902 17.449 612.902Z" fill="#3284E2"/>
<path d="M68.6327 612.902C70.9883 612.902 72.898 610.986 72.898 608.623C72.898 606.259 70.9883 604.344 68.6327 604.344C66.277 604.344 64.3674 606.259 64.3674 608.623C64.3674 610.986 66.277 612.902 68.6327 612.902Z" fill="#3284E2"/>
<path d="M119.816 612.902C122.172 612.902 124.082 610.986 124.082 608.623C124.082 606.259 122.172 604.344 119.816 604.344C117.461 604.344 115.551 606.259 115.551 608.623C115.551 610.986 117.461 612.902 119.816 612.902Z" fill="#3284E2"/>
<path d="M171 612.902C173.356 612.902 175.265 610.986 175.265 608.623C175.265 606.259 173.356 604.344 171 604.344C168.644 604.344 166.735 606.259 166.735 608.623C166.735 610.986 168.644 612.902 171 612.902Z" fill="#3284E2"/>
<path d="M222.184 612.902C224.539 612.902 226.449 610.986 226.449 608.623C226.449 606.259 224.539 604.344 222.184 604.344C219.828 604.344 217.918 606.259 217.918 608.623C217.918 610.986 219.828 612.902 222.184 612.902Z" fill="#3284E2"/>
<path d="M273.367 612.902C275.723 612.902 277.633 610.986 277.633 608.623C277.633 606.259 275.723 604.344 273.367 604.344C271.012 604.344 269.102 606.259 269.102 608.623C269.102 610.986 271.012 612.902 273.367 612.902Z" fill="#3284E2"/>
<path d="M324.551 612.902C326.907 612.902 328.816 610.986 328.816 608.623C328.816 606.259 326.907 604.344 324.551 604.344C322.195 604.344 320.286 606.259 320.286 608.623C320.286 610.986 322.195 612.902 324.551 612.902Z" fill="#3284E2"/>
<path d="M375.735 612.902C378.09 612.902 380 610.986 380 608.623C380 606.259 378.09 604.344 375.735 604.344C373.379 604.344 371.469 606.259 371.469 608.623C371.469 610.986 373.379 612.902 375.735 612.902Z" fill="#3284E2"/>
<path d="M17.449 664.251C19.8047 664.251 21.7143 662.336 21.7143 659.972C21.7143 657.609 19.8047 655.693 17.449 655.693C15.0934 655.693 13.1837 657.609 13.1837 659.972C13.1837 662.336 15.0934 664.251 17.449 664.251Z" fill="#3284E2"/>
<path d="M68.6327 664.251C70.9883 664.251 72.898 662.336 72.898 659.972C72.898 657.609 70.9883 655.693 68.6327 655.693C66.277 655.693 64.3674 657.609 64.3674 659.972C64.3674 662.336 66.277 664.251 68.6327 664.251Z" fill="#3284E2"/>
<path d="M119.816 664.251C122.172 664.251 124.082 662.336 124.082 659.972C124.082 657.609 122.172 655.693 119.816 655.693C117.461 655.693 115.551 657.609 115.551 659.972C115.551 662.336 117.461 664.251 119.816 664.251Z" fill="#3284E2"/>
<path d="M171 664.251C173.356 664.251 175.265 662.336 175.265 659.972C175.265 657.609 173.356 655.693 171 655.693C168.644 655.693 166.735 657.609 166.735 659.972C166.735 662.336 168.644 664.251 171 664.251Z" fill="#3284E2"/>
<path d="M222.184 664.251C224.539 664.251 226.449 662.336 226.449 659.972C226.449 657.609 224.539 655.693 222.184 655.693C219.828 655.693 217.918 657.609 217.918 659.972C217.918 662.336 219.828 664.251 222.184 664.251Z" fill="#3284E2"/>
<path d="M273.367 664.251C275.723 664.251 277.633 662.336 277.633 659.972C277.633 657.609 275.723 655.693 273.367 655.693C271.012 655.693 269.102 657.609 269.102 659.972C269.102 662.336 271.012 664.251 273.367 664.251Z" fill="#3284E2"/>
<path d="M324.551 664.251C326.907 664.251 328.816 662.336 328.816 659.972C328.816 657.609 326.907 655.693 324.551 655.693C322.195 655.693 320.286 657.609 320.286 659.972C320.286 662.336 322.195 664.251 324.551 664.251Z" fill="#3284E2"/>
<path d="M375.735 664.251C378.09 664.251 380 662.336 380 659.972C380 657.609 378.09 655.693 375.735 655.693C373.379 655.693 371.469 657.609 371.469 659.972C371.469 662.336 373.379 664.251 375.735 664.251Z" fill="#3284E2"/>
<path d="M17.449 715.601C19.8047 715.601 21.7143 713.686 21.7143 711.322C21.7143 708.959 19.8047 707.043 17.449 707.043C15.0934 707.043 13.1837 708.959 13.1837 711.322C13.1837 713.686 15.0934 715.601 17.449 715.601Z" fill="#3284E2"/>
<path d="M68.6327 715.601C70.9883 715.601 72.898 713.686 72.898 711.322C72.898 708.959 70.9883 707.043 68.6327 707.043C66.277 707.043 64.3674 708.959 64.3674 711.322C64.3674 713.686 66.277 715.601 68.6327 715.601Z" fill="#3284E2"/>
<path d="M119.816 715.601C122.172 715.601 124.082 713.686 124.082 711.322C124.082 708.959 122.172 707.043 119.816 707.043C117.461 707.043 115.551 708.959 115.551 711.322C115.551 713.686 117.461 715.601 119.816 715.601Z" fill="#3284E2"/>
<path d="M171 715.601C173.356 715.601 175.265 713.686 175.265 711.322C175.265 708.959 173.356 707.043 171 707.043C168.644 707.043 166.735 708.959 166.735 711.322C166.735 713.686 168.644 715.601 171 715.601Z" fill="#3284E2"/>
<path d="M222.184 715.601C224.539 715.601 226.449 713.686 226.449 711.322C226.449 708.959 224.539 707.043 222.184 707.043C219.828 707.043 217.918 708.959 217.918 711.322C217.918 713.686 219.828 715.601 222.184 715.601Z" fill="#3284E2"/>
<path d="M273.367 715.601C275.723 715.601 277.633 713.686 277.633 711.322C277.633 708.959 275.723 707.043 273.367 707.043C271.012 707.043 269.102 708.959 269.102 711.322C269.102 713.686 271.012 715.601 273.367 715.601Z" fill="#3284E2"/>
<path d="M324.551 715.601C326.907 715.601 328.816 713.686 328.816 711.322C328.816 708.959 326.907 707.043 324.551 707.043C322.195 707.043 320.286 708.959 320.286 711.322C320.286 713.686 322.195 715.601 324.551 715.601Z" fill="#3284E2"/>
<path d="M375.735 715.601C378.09 715.601 380 713.686 380 711.322C380 708.959 378.09 707.043 375.735 707.043C373.379 707.043 371.469 708.959 371.469 711.322C371.469 713.686 373.379 715.601 375.735 715.601Z" fill="#3284E2"/>
<path d="M17.449 766.951C19.8047 766.951 21.7143 765.035 21.7143 762.672C21.7143 760.309 19.8047 758.393 17.449 758.393C15.0934 758.393 13.1837 760.309 13.1837 762.672C13.1837 765.035 15.0934 766.951 17.449 766.951Z" fill="#3284E2"/>
<path d="M68.6327 766.951C70.9883 766.951 72.898 765.035 72.898 762.672C72.898 760.309 70.9883 758.393 68.6327 758.393C66.277 758.393 64.3674 760.309 64.3674 762.672C64.3674 765.035 66.277 766.951 68.6327 766.951Z" fill="#3284E2"/>
<path d="M119.816 766.951C122.172 766.951 124.082 765.035 124.082 762.672C124.082 760.309 122.172 758.393 119.816 758.393C117.461 758.393 115.551 760.309 115.551 762.672C115.551 765.035 117.461 766.951 119.816 766.951Z" fill="#3284E2"/>
<path d="M171 766.951C173.356 766.951 175.265 765.035 175.265 762.672C175.265 760.309 173.356 758.393 171 758.393C168.644 758.393 166.735 760.309 166.735 762.672C166.735 765.035 168.644 766.951 171 766.951Z" fill="#3284E2"/>
<path d="M222.184 766.951C224.539 766.951 226.449 765.035 226.449 762.672C226.449 760.309 224.539 758.393 222.184 758.393C219.828 758.393 217.918 760.309 217.918 762.672C217.918 765.035 219.828 766.951 222.184 766.951Z" fill="#3284E2"/>
<path d="M273.367 766.951C275.723 766.951 277.633 765.035 277.633 762.672C277.633 760.309 275.723 758.393 273.367 758.393C271.012 758.393 269.102 760.309 269.102 762.672C269.102 765.035 271.012 766.951 273.367 766.951Z" fill="#3284E2"/>
<path d="M324.551 766.951C326.907 766.951 328.816 765.035 328.816 762.672C328.816 760.309 326.907 758.393 324.551 758.393C322.195 758.393 320.286 760.309 320.286 762.672C320.286 765.035 322.195 766.951 324.551 766.951Z" fill="#3284E2"/>
<path d="M375.735 766.951C378.09 766.951 380 765.035 380 762.672C380 760.309 378.09 758.393 375.735 758.393C373.379 758.393 371.469 760.309 371.469 762.672C371.469 765.035 373.379 766.951 375.735 766.951Z" fill="#3284E2"/>
<path d="M17.449 818.301C19.8047 818.301 21.7143 816.385 21.7143 814.021C21.7143 811.658 19.8047 809.742 17.449 809.742C15.0934 809.742 13.1837 811.658 13.1837 814.021C13.1837 816.385 15.0934 818.301 17.449 818.301Z" fill="#3284E2"/>
<path d="M68.6327 818.301C70.9883 818.301 72.898 816.385 72.898 814.021C72.898 811.658 70.9883 809.742 68.6327 809.742C66.277 809.742 64.3674 811.658 64.3674 814.021C64.3674 816.385 66.277 818.301 68.6327 818.301Z" fill="#3284E2"/>
<path d="M119.816 818.301C122.172 818.301 124.082 816.385 124.082 814.021C124.082 811.658 122.172 809.742 119.816 809.742C117.461 809.742 115.551 811.658 115.551 814.021C115.551 816.385 117.461 818.301 119.816 818.301Z" fill="#3284E2"/>
<path d="M171 818.301C173.356 818.301 175.265 816.385 175.265 814.021C175.265 811.658 173.356 809.742 171 809.742C168.644 809.742 166.735 811.658 166.735 814.021C166.735 816.385 168.644 818.301 171 818.301Z" fill="#3284E2"/>
<path d="M222.184 818.301C224.539 818.301 226.449 816.385 226.449 814.021C226.449 811.658 224.539 809.742 222.184 809.742C219.828 809.742 217.918 811.658 217.918 814.021C217.918 816.385 219.828 818.301 222.184 818.301Z" fill="#3284E2"/>
<path d="M273.367 818.301C275.723 818.301 277.633 816.385 277.633 814.021C277.633 811.658 275.723 809.742 273.367 809.742C271.012 809.742 269.102 811.658 269.102 814.021C269.102 816.385 271.012 818.301 273.367 818.301Z" fill="#3284E2"/>
<path d="M324.551 818.301C326.907 818.301 328.816 816.385 328.816 814.021C328.816 811.658 326.907 809.742 324.551 809.742C322.195 809.742 320.286 811.658 320.286 814.021C320.286 816.385 322.195 818.301 324.551 818.301Z" fill="#3284E2"/>
<path d="M375.735 818.301C378.09 818.301 380 816.385 380 814.021C380 811.658 378.09 809.742 375.735 809.742C373.379 809.742 371.469 811.658 371.469 814.021C371.469 816.385 373.379 818.301 375.735 818.301Z" fill="#3284E2"/>
<path d="M17.449 869.65C19.8047 869.65 21.7143 867.735 21.7143 865.371C21.7143 863.008 19.8047 861.092 17.449 861.092C15.0934 861.092 13.1837 863.008 13.1837 865.371C13.1837 867.735 15.0934 869.65 17.449 869.65Z" fill="#3284E2"/>
<path d="M68.6327 869.65C70.9883 869.65 72.898 867.735 72.898 865.371C72.898 863.008 70.9883 861.092 68.6327 861.092C66.277 861.092 64.3674 863.008 64.3674 865.371C64.3674 867.735 66.277 869.65 68.6327 869.65Z" fill="#3284E2"/>
<path d="M119.816 869.65C122.172 869.65 124.082 867.735 124.082 865.371C124.082 863.008 122.172 861.092 119.816 861.092C117.461 861.092 115.551 863.008 115.551 865.371C115.551 867.735 117.461 869.65 119.816 869.65Z" fill="#3284E2"/>
<path d="M171 869.65C173.356 869.65 175.265 867.735 175.265 865.371C175.265 863.008 173.356 861.092 171 861.092C168.644 861.092 166.735 863.008 166.735 865.371C166.735 867.735 168.644 869.65 171 869.65Z" fill="#3284E2"/>
<path d="M222.184 869.65C224.539 869.65 226.449 867.735 226.449 865.371C226.449 863.008 224.539 861.092 222.184 861.092C219.828 861.092 217.918 863.008 217.918 865.371C217.918 867.735 219.828 869.65 222.184 869.65Z" fill="#3284E2"/>
<path d="M273.367 869.65C275.723 869.65 277.633 867.735 277.633 865.371C277.633 863.008 275.723 861.092 273.367 861.092C271.012 861.092 269.102 863.008 269.102 865.371C269.102 867.735 271.012 869.65 273.367 869.65Z" fill="#3284E2"/>
<path d="M324.551 869.65C326.907 869.65 328.816 867.735 328.816 865.371C328.816 863.008 326.907 861.092 324.551 861.092C322.195 861.092 320.286 863.008 320.286 865.371C320.286 867.735 322.195 869.65 324.551 869.65Z" fill="#3284E2"/>
<path d="M375.735 869.65C378.09 869.65 380 867.735 380 865.371C380 863.008 378.09 861.092 375.735 861.092C373.379 861.092 371.469 863.008 371.469 865.371C371.469 867.735 373.379 869.65 375.735 869.65Z" fill="#3284E2"/>
<path d="M17.449 921C19.8047 921 21.7143 919.084 21.7143 916.721C21.7143 914.358 19.8047 912.442 17.449 912.442C15.0934 912.442 13.1837 914.358 13.1837 916.721C13.1837 919.084 15.0934 921 17.449 921Z" fill="#3284E2"/>
<path d="M68.6327 921C70.9883 921 72.898 919.084 72.898 916.721C72.898 914.358 70.9883 912.442 68.6327 912.442C66.277 912.442 64.3674 914.358 64.3674 916.721C64.3674 919.084 66.277 921 68.6327 921Z" fill="#3284E2"/>
<path d="M119.816 921C122.172 921 124.082 919.084 124.082 916.721C124.082 914.358 122.172 912.442 119.816 912.442C117.461 912.442 115.551 914.358 115.551 916.721C115.551 919.084 117.461 921 119.816 921Z" fill="#3284E2"/>
<path d="M171 921C173.356 921 175.265 919.084 175.265 916.721C175.265 914.358 173.356 912.442 171 912.442C168.644 912.442 166.735 914.358 166.735 916.721C166.735 919.084 168.644 921 171 921Z" fill="#3284E2"/>
<path d="M222.184 921C224.539 921 226.449 919.084 226.449 916.721C226.449 914.358 224.539 912.442 222.184 912.442C219.828 912.442 217.918 914.358 217.918 916.721C217.918 919.084 219.828 921 222.184 921Z" fill="#3284E2"/>
<path d="M273.367 921C275.723 921 277.633 919.084 277.633 916.721C277.633 914.358 275.723 912.442 273.367 912.442C271.012 912.442 269.102 914.358 269.102 916.721C269.102 919.084 271.012 921 273.367 921Z" fill="#3284E2"/>
<path d="M324.551 921C326.907 921 328.816 919.084 328.816 916.721C328.816 914.358 326.907 912.442 324.551 912.442C322.195 912.442 320.286 914.358 320.286 916.721C320.286 919.084 322.195 921 324.551 921Z" fill="#3284E2"/>
<path d="M375.735 921C378.09 921 380 919.084 380 916.721C380 914.358 378.09 912.442 375.735 912.442C373.379 912.442 371.469 914.358 371.469 916.721C371.469 919.084 373.379 921 375.735 921Z" fill="#3284E2"/>
</g>
</svg>
