<svg width="215" height="125" viewBox="0 0 215 125" fill="none" xmlns="http://www.w3.org/2000/svg">
<path d="M169 106C169 116.493 160.493 125 150 125L-110 125L-110 87L150 87C160.493 87 169 95.5066 169 106Z" fill="#0054FF" fill-opacity="0.2"/>
<path d="M167 19C167 29.4934 158.493 38 148 38L-112 38L-112 -2.4391e-05L148 -1.66103e-06C158.493 -7.43669e-07 167 8.50659 167 19Z" fill="#0054FF" fill-opacity="0.2"/>
<path d="M215 62.5C215 72.7173 206.717 81 196.5 81L-64 81L-64 44L196.5 44C206.717 44 215 52.2827 215 62.5Z" fill="#0054FF" fill-opacity="0.2"/>
</svg>
