<svg width="1440" height="578" viewBox="0 0 1440 578" fill="none" xmlns="http://www.w3.org/2000/svg">
<path fill-rule="evenodd" clip-rule="evenodd" d="M0 75.5667L39.7542 47.6538C78.1375 19.7408 156.275 -36.0851 234.412 33.6973C313.921 103.48 392.058 298.87 470.196 340.74C548.333 382.609 626.471 270.957 704.608 284.914C782.746 298.87 862.254 438.435 940.392 480.305C1018.53 522.174 1096.67 466.348 1174.8 368.653C1252.94 270.957 1331.08 131.393 1410.59 117.436C1488.72 103.48 1566.86 215.132 1605.25 270.957L1645 326.783V578H1605.25C1566.86 578 1488.72 578 1410.59 578C1331.08 578 1252.94 578 1174.8 578C1096.67 578 1018.53 578 940.392 578C862.254 578 782.746 578 704.608 578C626.471 578 548.333 578 470.196 578C392.058 578 313.921 578 234.412 578C156.275 578 78.1375 578 39.7542 578H0V75.5667Z" fill="#E5F3FF"/>
</svg>
